<svg version="1.1" xmlns="http://www.w3.org/2000/svg" style="display: block;" viewBox="0 0 1200 1200" width="300" height="300">
	<style>
    @media (prefers-color-scheme: dark) {
      .switchable { fill: #FFF; }
	  .silver { fill=rgb(181,193,198); }
	  .bord { fill: rgba(195, 195, 195, 1); } 
    }
    @media (prefers-color-scheme: light) {
      .switchable { fill: rgb(2,2,1); } 
	  .silver { fill: rgb(139, 139, 139); } 
	  .bord { fill: rgb(151,164,167); } 
    }
  </style>
	<defs>
		<linearGradient id="Gradient1" gradientUnits="userSpaceOnUse" x1="102.158" y1="1165.81" x2="135.416" y2="1021.71">
			<stop class="stop0" offset="0" stop-opacity="1" stop-color="rgb(107,64,60)"/>
			<stop class="stop1" offset="1" stop-opacity="1" stop-color="rgb(137,87,75)"/>
		</linearGradient>
	</defs>
	<path class="switchable" d="m0,0l1200,0l0,1200l-1200,0l0,-1200z" fill="rgb(2,2,1)" id="svg_1" transform="matrix(1 0 0 1 0 0)"/>
	<path d="m165.93,822.92c-19.71,0.62 -39.46,0.42 -59.17,0.45c-13.7,0.02 -29.35,1.49 -42.71,-1.51c-7.54,-1.68 -14.49,-5.35 -20.12,-10.64c-2.06,-1.96 -4.49,-4.22 -5.76,-6.81c-3.59,-7.3 -2.87,-22.86 -3,-30.97c-0.8,-49.48 -0.11,-99.09 -0.12,-148.58l-0.03,-283.99l0.02,-149.8c0,-28.42 -1.59,-58.02 1.18,-86.3c0.73,-7.53 3.66,-14.46 8.94,-19.96c12.86,-13.38 37.58,-12.45 54.75,-12.57l666.41,0.67l227.29,0.01c41.06,-0.12 83.16,-2.7 124.09,0.19c11.03,0.78 19.97,2.79 28.01,10.69c5.37,5.28 10.86,12.63 12.7,20.07c4.11,16.57 1.85,44.42 1.88,62.35l0.18,112.16l-0.16,341.9l0.2,101.71c0.06,21.21 1.3,43.11 -1.21,64.21c-1.13,9.5 -4.34,17.75 -11.18,24.6c-5.41,5.35 -12.18,9.12 -19.57,10.91c-11.93,2.81 -25.63,1.52 -37.87,1.48c-20.91,-0.06 -41.89,-0.49 -62.8,0.04c0.61,40.81 -2.25,88.06 1.36,127.98c0.29,0.13 0.57,0.27 0.86,0.4c1.19,0.52 2.36,0.73 3.62,1c1.94,0.41 3.22,0.9 4.81,2.06c-0.64,2.55 -4.35,2.74 -4.01,4.91c9.57,3.73 40.17,-15.24 51.76,10.63c2.93,6.56 1.68,12.29 0.97,19.14c11.53,-0.38 21.37,0.78 30.16,9.18c7.05,6.73 9.92,15.31 12.5,24.41l-7.97,17.33c9.51,1.86 16.78,4.88 25.1,9.81c4.73,28.62 -3.93,47.48 -20.31,70.43c-1.27,1.78 -2.72,3.6 -4.31,5.1c0.72,1.34 1.4,2.69 2.28,3.93c3.56,5.02 6.3,18.86 5.09,24.8c-0.4,1.98 -0.9,3.85 -2.6,5.08c-11.3,1.54 -93.61,2.82 -100.89,0.84c-95.02,-1.42 -190.47,-0.85 -285.5,-0.02c-30.95,1.06 -62.32,-0.04 -93.32,-0.07l-187.62,-0.13l-256.82,-0.01l-36.93,0.19c-34.36,0.41 -68.83,-0.06 -103.19,-0.52c-3.2,-3.43 -6.3,-7.14 -8.27,-11.43c-9.75,-21.25 2.44,-51.74 9.93,-72.1c-3.09,-4.54 -5.19,-9.95 -7.5,-14.92c-7.24,-11.62 -13.16,-23.1 -16.52,-36.41c2.75,-9.2 7.05,-17.14 13.3,-24.43c2.56,-2.98 6.68,-3.36 10.38,-4.18c2.1,-7.62 0,-16.22 0.56,-24.11c0.48,-6.56 1.74,-13.65 7.09,-18.06c7.76,-6.39 18.3,-5.79 27.63,-4.84l-1.68,-12.28c9.57,-15.58 19.99,-22.79 36.12,-30.73l11.3,8.45c4.69,-6.21 19.5,-19.08 20.67,-25.23l0,-66.51z" fill="rgb(134,92,83)" id="svg_2" transform="translate(0,0)"/>
	<path class="silver" d="m754.42,695.07c52.49,2.47 105.68,0.44 158.25,0.61c18.54,0.07 38.92,-1.97 57.23,0.76c11.99,1.8 26.12,7.06 36.04,14.03c4.45,3.85 8.13,7.89 11.9,12.4c4.1,6.38 6.76,12.1 8.42,19.52c3.45,15.45 3.21,64.4 1.62,80.84c0.61,40.81 -2.25,88.06 1.36,127.98c0.29,0.13 0.57,0.27 0.86,0.4c1.19,0.52 2.36,0.73 3.62,1c1.94,0.41 3.22,0.9 4.81,2.06c-0.64,2.55 -4.35,2.74 -4.01,4.91c9.57,3.73 40.17,-15.24 51.76,10.63c2.93,6.56 1.68,12.29 0.97,19.14c11.53,-0.38 21.37,0.78 30.16,9.18c7.05,6.73 9.92,15.31 12.5,24.41l-7.97,17.33c9.51,1.86 16.78,4.88 25.1,9.81c4.73,28.62 -3.93,47.48 -20.31,70.43c-1.27,1.78 -2.72,3.6 -4.31,5.1c0.72,1.34 1.4,2.69 2.28,3.93c3.56,5.02 6.3,18.86 5.09,24.8c-0.4,1.98 -0.9,3.85 -2.6,5.08c-11.3,1.54 -93.61,2.82 -100.89,0.84c-95.02,-1.42 -190.47,-0.85 -285.5,-0.02c-30.95,1.06 -62.32,-0.04 -93.32,-0.07l-187.62,-0.13l-256.82,-0.01l-36.93,0.19c-34.36,0.41 -68.83,-0.06 -103.19,-0.52c-3.2,-3.43 -6.3,-7.14 -8.27,-11.43c-9.75,-21.25 2.44,-51.74 9.93,-72.1c-3.09,-4.54 -5.19,-9.95 -7.5,-14.92c-7.24,-11.62 -13.16,-23.1 -16.52,-36.41c2.75,-9.2 7.05,-17.14 13.3,-24.43c2.56,-2.98 6.68,-3.36 10.38,-4.18c2.1,-7.62 0,-16.22 0.56,-24.11c0.48,-6.56 1.74,-13.65 7.09,-18.06c7.76,-6.39 18.3,-5.79 27.63,-4.84l-1.68,-12.28c9.57,-15.58 19.99,-22.79 36.12,-30.73l11.3,8.45c4.69,-6.21 19.5,-19.08 20.67,-25.23l0,-66.51c0.05,-25.19 -3.77,-62.38 5.15,-85.18c3.67,-9.38 9.17,-16.64 15.79,-24.05c11.64,-8.22 23.5,-13.91 37.64,-16.46c22.41,-4.06 47.75,-1.62 70.56,-1.6c49.65,0.03 99.42,0.91 149.05,-0.03c27.44,-0.76 55.16,-0.41 82.63,-0.39c18.3,1.04 36.76,0.54 55.09,0.54l88.14,0.02c27.98,1.13 56.48,0.56 84.44,-0.7z" fill="rgb(181,193,198)" id="svg_3"/>
	<path class="bord" d="m755.44,695.07c52.49,2.47 105.68,0.44 158.25,0.61c18.54,0.07 38.92,-1.97 57.23,0.76c11.99,1.8 26.12,7.06 36.04,14.03c4.45,3.85 8.13,7.89 11.9,12.4c-0.75,2.64 -0.8,3.04 -2.91,4.75c-53.19,-0.98 -106.68,0.4 -159.91,0.41l-357.72,0.01l-162.81,-0.07c-21.91,-0.03 -58.95,-2.09 -79.55,0.83c-13.47,1.9 -27.67,12.28 -37.35,21.59c-4.1,3.95 -8.41,8.6 -10.73,13.88c-4.86,11.02 -3.68,34.23 -3.88,46.85c-1.06,67.48 -0.11,135.18 0.11,202.68l0.55,103.75c0,14.16 -0.78,28.33 -0.6,42.48l-36.93,0.19l-0.18,-337.3c0.05,-25.19 -3.77,-62.38 5.15,-85.18c3.67,-9.38 9.17,-16.64 15.79,-24.05c11.64,-8.22 23.5,-13.91 37.64,-16.46c22.41,-4.06 47.75,-1.62 70.56,-1.6c49.65,0.03 99.42,0.91 149.05,-0.03c27.44,-0.76 55.16,-0.41 82.63,-0.39c18.3,1.04 36.76,0.54 55.09,0.54l88.14,0.02c27.98,1.13 56.48,0.56 84.44,-0.7z" fill="rgb(209,217,220)" id="svg_4"/>
	<path d="m166.23,889.43c-1.63,54.8 1.61,109.87 -0.03,164.63c0.04,35.38 -0.23,70.79 0.21,106.16c-34.36,0.41 -68.83,-0.06 -103.19,-0.52c-3.2,-3.43 -6.3,-7.14 -8.27,-11.43c-9.75,-21.25 2.44,-51.74 9.93,-72.1c-3.09,-4.54 -5.19,-9.95 -7.5,-14.92c-7.24,-11.62 -13.16,-23.1 -16.52,-36.41c2.75,-9.2 7.05,-17.14 13.3,-24.43c2.56,-2.98 6.68,-3.36 10.38,-4.18c2.1,-7.62 0,-16.22 0.56,-24.11c0.48,-6.56 1.74,-13.65 7.09,-18.06c7.76,-6.39 18.3,-5.79 27.63,-4.84l-1.68,-12.28c9.57,-15.58 19.99,-22.79 36.12,-30.73l11.3,8.45c4.69,-6.21 19.5,-19.08 20.67,-25.23z" fill="rgb(185,146,124)" id="svg_5" transform="matrix(1 0 0 1 0 0)"/>
	<path d="m113.65,1080.36c-4.4,-12.27 -19.4,-28.35 -26.64,-40.28c-3.77,-6.23 -13.32,-24.09 -11.57,-31.15c1.98,0.65 3.59,3.24 4.71,4.99c11.52,18.04 20.64,41.38 38.98,54.02c3.82,2.64 8.86,4.04 13.24,5.55c5.84,-3.78 10.55,-7.99 15.57,-12.77c0.26,-7 0.07,-13.99 -0.06,-20.98c-3.1,-4.35 -6.18,-8.72 -9.22,-13.11c0.85,-1.87 2.54,-3.16 4.03,-4.52c3.95,4.47 21.82,23.14 22.48,27.34c0.24,1.54 0.51,3.07 0.73,4.61c0.04,35.38 -0.23,70.79 0.21,106.16c-34.36,0.41 -68.83,-0.06 -103.19,-0.52c-3.2,-3.43 -6.3,-7.14 -8.27,-11.43c-9.75,-21.25 2.44,-51.74 9.93,-72.1c-3.09,-4.54 -5.19,-9.95 -7.5,-14.92c14.69,8.99 23.95,24.24 40.2,31.4c4.18,-1.81 12.17,-9.28 16.37,-12.29z" fill="url(#Gradient1)" id="svg_6" transform="translate(0,0)"/>
	<path d="m97.28,1092.65c4.18,-1.81 12.17,-9.28 16.37,-12.29c1.55,3.03 2.96,5.63 5.27,8.17l0.02,2.31c-3.46,3.13 -10.42,3.46 -14.93,3.25c-2.16,-0.1 -4.76,-0.58 -6.73,-1.44z" fill="rgb(134,92,83)" id="svg_7" transform="translate(0,0)"/>
	<path d="m138.66,1026.63c-12.48,-17.15 -21.45,-34.92 -28.7,-54.84l0.62,-0.85c8.36,6.14 23.95,40.28 32.11,51.17c-1.49,1.36 -3.18,2.65 -4.03,4.52z" fill="rgb(114,74,63)" id="svg_8" transform="translate(0,0)"/>
	<path d="m459.86,1160.04c0.38,-19.78 10.99,-41.09 16.36,-60.19c5.24,-18.6 9.66,-38.51 13.07,-57.54c4.5,-25.16 4.98,-52.2 6.15,-77.76c0.62,-13.26 0.56,-26.93 3.41,-39.96c2.65,-12.16 8.03,-23.83 17.17,-32.47c8.2,-7.75 18.82,-12.98 29.78,-15.48c16.74,-3.82 36.86,-1.82 53.98,-1.76c14.1,0.05 28.48,-0.55 42.55,0.02c14.81,0.61 30.79,5.88 40.99,17.11c19.05,20.97 18.33,87.41 20.61,115.4c1.75,21.56 3.78,43.95 8.3,65.1c3.36,15.69 8.28,33.39 13.98,48.45c4.92,13.01 12.17,25.48 14.59,39.28c-30.95,1.06 -62.32,-0.04 -93.32,-0.07l-187.62,-0.13z" fill="rgb(151,164,167)" id="svg_9" transform="translate(0,0)"/>
	<path d="m1029.24,951.21c0.29,0.13 0.57,0.27 0.86,0.4c1.19,0.52 2.36,0.73 3.62,1c1.94,0.41 3.22,0.9 4.81,2.06c-0.64,2.55 -4.35,2.74 -4.01,4.91c9.57,3.73 40.17,-15.24 51.76,10.63c2.93,6.56 1.68,12.29 0.97,19.14c11.53,-0.38 21.37,0.78 30.16,9.18c7.05,6.73 9.92,15.31 12.5,24.41l-7.97,17.33c9.51,1.86 16.78,4.88 25.1,9.81c4.73,28.62 -3.93,47.48 -20.31,70.43c-1.27,1.78 -2.72,3.6 -4.31,5.1c0.72,1.34 1.4,2.69 2.28,3.93c3.56,5.02 6.3,18.86 5.09,24.8c-0.4,1.98 -0.9,3.85 -2.6,5.08c-11.3,1.54 -93.61,2.82 -100.89,0.84c0.06,-0.04 0.14,-0.06 0.19,-0.11c2.23,-2.25 1.75,-5.33 1.99,-8.38c-1.62,-9.99 -1.48,-54.28 0.54,-63.02c-1.87,-10.14 -1.03,-21.47 -1.1,-31.81c-0.14,-24.2 -0.06,-48.4 0.25,-72.59c0.19,-11 1.74,-22.19 1.07,-33.14z" fill="rgb(185,146,124)" id="svg_10" transform="translate(0,0)"/>
	<path d="m1072.08,1117.72c21.07,-16.96 29.21,-45.38 48.14,-64.19c-10.8,27.79 -33.24,54.43 -39.04,82.44c7.11,0.2 14.07,0.17 21.18,-0.27c7.2,-5.42 9.81,-10.42 19.34,-9.79l0.72,-0.3c0.72,1.34 1.4,2.69 2.28,3.93c3.56,5.02 6.3,18.86 5.09,24.8c-0.4,1.98 -0.9,3.85 -2.6,5.08c-11.3,1.54 -93.61,2.82 -100.89,0.84c0.06,-0.04 0.14,-0.06 0.19,-0.11c2.23,-2.25 1.75,-5.33 1.99,-8.38c-1.62,-9.99 -1.48,-54.28 0.54,-63.02c8.5,-10.55 16.68,-21.44 25.62,-31.62c-0.07,0.25 -0.14,0.5 -0.21,0.75c-0.97,3.24 -5.64,9.28 -4.86,11.76c3.57,0.14 5.84,-1.37 9.05,-2.57l-0.32,0.76c-7.13,16.39 -17.63,27.53 -17.3,46.47c10.3,2.48 20.53,3.02 31.08,3.42z" fill="rgb(134,92,83)" id="svg_11" transform="translate(0,0)"/>
	<path d="m1121.7,1125.91l0.72,-0.3c0.72,1.34 1.4,2.69 2.28,3.93c3.56,5.02 6.3,18.86 5.09,24.8c-0.4,1.98 -0.9,3.85 -2.6,5.08c-11.3,1.54 -93.61,2.82 -100.89,0.84c0.06,-0.04 0.14,-0.06 0.19,-0.11c2.23,-2.25 1.75,-5.33 1.99,-8.38c3.45,-6.6 -1.92,-16.13 1.79,-22.77c7.84,-3.57 44.76,15.89 56.08,18.67c9.59,-3.46 29.01,-14.18 35.35,-21.76z" fill="rgb(114,74,63)" id="svg_12" transform="translate(0,0)"/>
	<path d="m1054.64,1057.13c2.81,-5.02 20.71,-37.46 22.72,-38.73c2.1,4.93 -2.4,14.49 -4.38,19.43c-3.84,9.6 -8.17,20.93 -14.36,29.24c-3.21,1.2 -5.48,2.71 -9.05,2.57c-0.78,-2.48 3.89,-8.52 4.86,-11.76c0.07,-0.25 0.14,-0.5 0.21,-0.75z" fill="rgb(114,74,63)" id="svg_13" transform="translate(0,0)"/>
	<path d="m165.93,822.92c-19.71,0.62 -39.46,0.42 -59.17,0.45c-13.7,0.02 -29.35,1.49 -42.71,-1.51c-7.54,-1.68 -14.49,-5.35 -20.12,-10.64c-2.06,-1.96 -4.49,-4.22 -5.76,-6.81c-3.59,-7.3 -2.87,-22.86 -3,-30.97c-0.8,-49.48 -0.11,-99.09 -0.12,-148.58l-0.03,-283.99l0.02,-149.8c0,-28.42 -1.59,-58.02 1.18,-86.3c0.73,-7.53 3.66,-14.46 8.94,-19.96c12.86,-13.38 37.58,-12.45 54.75,-12.57l666.41,0.67l227.29,0.01c41.06,-0.12 83.16,-2.7 124.09,0.19c11.03,0.78 19.97,2.79 28.01,10.69c5.37,5.28 10.86,12.63 12.7,20.07c4.11,16.57 1.85,44.42 1.88,62.35l0.18,112.16l-0.16,341.9l0.2,101.71c0.06,21.21 1.3,43.11 -1.21,64.21c-1.13,9.5 -4.34,17.75 -11.18,24.6c-5.41,5.35 -12.18,9.12 -19.57,10.91c-11.93,2.81 -25.63,1.52 -37.87,1.48c-20.91,-0.06 -41.89,-0.49 -62.8,0.04c1.59,-16.44 1.83,-65.39 -1.62,-80.84c-1.66,-7.42 -4.32,-13.14 -8.42,-19.52c-3.77,-4.51 -7.45,-8.55 -11.9,-12.4c5.38,-15.43 3.63,-71.23 5.96,-75.05c-3.27,-8.52 -0.59,-26.45 -1.66,-36.42c-2.71,-8.84 -2.93,-18.95 -4.94,-28.1c-3.39,-15.41 -8.68,-30.21 -10.94,-45.9c-1.95,-12.24 -6.91,-26.29 -11.07,-38.03l-0.92,-0.45c-2.03,-7.53 -4.05,-15.14 -6.84,-22.44c-4.87,-12.78 -12.66,-26.28 -14.35,-39.94c-1.42,-11.53 3.91,-19.85 10.8,-28.29c1.67,-7.96 3.28,-15.91 5.36,-23.77c6.47,-25.37 8.14,-48.25 3.86,-74.26c-3.16,-12.02 -7.01,-23.89 -10.05,-35.91c-7.28,-4.78 -13.05,-15.61 -18.96,-22.21c-11.06,-12.35 -23.84,-21.5 -37.89,-30.17c-26.34,-16.27 -59.95,-20.91 -89.44,-9.89c-10.03,3.75 -19.38,9.71 -28.97,14.49c-8.96,4.46 -18.39,7.97 -27.68,11.67c-7.38,2.93 -15.05,7.46 -22.96,8.5c-19.4,2.54 -62.34,-16.14 -84.45,-20.36c-39.42,-7.53 -90.73,-6.97 -130.12,-1.54c-10.31,1.42 -20.68,3.13 -30.7,5.97c-15.4,4.36 -33.65,15.16 -49.83,12.96c-18.19,-2.46 -36.24,-14.78 -52.51,-22.85c-17.25,-8.56 -57.26,-24.23 -76.03,-19.67c-26.35,6.4 -63.31,25.66 -81.46,46.46c-7.07,8.1 -11.69,17.31 -17.22,26.43c-3.19,12.57 -6.23,25.11 -7.54,38.04c-11.31,21.85 4.24,50.23 4.86,73.05c2.53,12.71 5.63,25.32 10.3,37.42c-8.53,0.08 -17.28,-0.22 -25.78,0.46c7.77,0.13 22.86,-2.27 28.31,3.82c4.16,4.64 3.06,17.97 2.41,23.87c-1.08,9.76 -8.36,15.93 -12.4,24.36c-4.71,9.85 -8.69,21.25 -12.07,31.64c-6.22,19.07 -12.84,39.53 -16.99,59.13c-2.26,10.7 -3.27,36.96 -6.81,44.82c-2.66,10.99 -2.19,25.61 -1.55,36.92c1.13,9.68 -0.27,20.09 -0.65,29.85c-0.38,11.44 -0.21,22.9 0.51,34.32c0.27,4.61 0.2,9.81 1.34,14.29c-6.62,7.41 -12.12,14.67 -15.79,24.05c-8.92,22.8 -5.1,59.99 -5.15,85.18z" fill="rgb(68,68,68)" id="svg_14" transform="translate(0,0)"/>
	<path d="m977.34,372.08c14.18,1.37 28.71,0.81 42.94,0.76l65.55,-0.34c0.09,12.72 0.65,25.65 0.06,38.35l-69.07,0.3c-15.23,0.04 -31.09,0.8 -46.19,-1.21c0.36,-4.69 0.61,-9.44 1.35,-14.09c1.67,-7.96 3.28,-15.91 5.36,-23.77z" fill="rgb(92,250,55)" id="svg_15" transform="translate(0,0)"/>
	<path d="m112.39,372.58c16.89,0.81 34.14,-0.09 51.05,-0.22c18.94,-0.14 37.87,0.41 56.81,0.43c2.53,12.71 5.63,25.32 10.3,37.42c-8.53,0.08 -17.28,-0.22 -25.78,0.46c-30.45,0.42 -61.05,1.14 -91.48,0.02c-0.88,-12.69 -0.93,-25.4 -0.9,-38.11z" fill="rgb(92,250,55)" id="svg_16" transform="translate(0,0)"/>
	<path d="m1010.24,599c25.03,-0.51 50.43,0.33 75.38,-0.84c-0.21,12.66 -0.12,25.32 0.28,37.97c-24.67,-0.31 -49.34,-0.04 -74,-0.71c-3.27,-8.52 -0.59,-26.45 -1.66,-36.42z" fill="rgb(92,250,55)" id="svg_17" transform="translate(0,0)"/>
	<path d="m112.33,598.84c24.94,0.35 49.96,-1.6 74.89,-0.53c-2.66,10.99 -2.19,25.61 -1.55,36.92c-24.18,-0.06 -48.41,0.74 -72.59,1.14l-0.75,-37.53z" fill="rgb(92,250,55)" id="svg_18" transform="translate(0,0)"/>
	<path d="m971.15,261.91c25.15,-0.57 50.98,0.71 76.03,-0.91c-0.15,12.7 -0.04,25.45 -0.62,38.13c-21.79,-0.09 -43.58,-0.52 -65.36,-1.31c-3.16,-12.02 -7.01,-23.89 -10.05,-35.91z" fill="rgb(92,250,55)" id="svg_19" transform="translate(0,0)"/>
	<path d="m983.29,486.97c6.92,-4.9 36.14,-2 45.93,-2.57c-0.05,13.29 0.33,26.75 -0.88,40c-11.36,-0.07 -22.63,0 -33.98,0.6c-1.95,-12.24 -6.91,-26.29 -11.07,-38.03z" fill="rgb(92,250,55)" id="svg_20" transform="translate(0,0)"/>
	<path d="m184.88,262.21c12.68,-0.08 25.37,-0.25 38.05,-0.51c-3.19,12.57 -6.23,25.11 -7.54,38.04c-9.64,-1.53 -19.94,-0.77 -29.68,-0.58c-1.11,-12.24 -0.82,-24.67 -0.83,-36.95z" fill="rgb(92,250,55)" id="svg_21" transform="translate(0,0)"/>
	<path d="m114.45,147.57c27.83,-1.76 56.33,-0.49 84.23,-0.55c46.45,-0.31 92.91,-0.29 139.36,0.05c0.19,8.87 2.43,31.09 -1,38.26l-2.79,0.45c-17.64,0.37 -35.27,1.31 -52.91,1.42c-56.15,0.37 -112.14,-0.75 -168.31,0.56c-0.58,-12.41 -2.54,-27.26 -0.4,-39.35l1.82,-0.84z" fill="rgb(92,250,55)" id="svg_22" transform="translate(0,0)"/>
	<path d="m803.4,147.19c49.53,1.58 99.26,-1.25 148.82,0.13c-0.1,12.71 1.07,26.92 -0.58,39.47c-49.19,0.97 -98.4,1.29 -147.6,0.96c-0.54,-13.49 -0.44,-27.07 -0.64,-40.56z" fill="rgb(92,250,55)" id="svg_23" transform="translate(0,0)"/>
	<path d="m1011.06,147.01c25.21,-0.38 50.43,-0.25 75.64,0.39c0.24,13.22 -0.52,26.46 -1.06,39.67c-24.59,-0.15 -50.12,-1.59 -74.59,0.72c-0.18,-13.58 0,-27.19 0.01,-40.78z" fill="rgb(92,250,55)" id="svg_24" transform="translate(0,0)"/>
	<path d="m113.08,485.19c24.94,-0.98 49.88,0.14 74.8,-0.62c-0.69,12.98 -0.47,26.16 -0.65,39.16c-25.02,0.19 -50.04,0.7 -75.05,-0.09c0.64,-12.77 0.5,-25.65 0.9,-38.45z" fill="rgb(92,250,55)" id="svg_25" transform="translate(0,0)"/>
	<path d="m444.12,695.6c6,-40.42 32.25,-82.21 65.1,-106.59c29.72,-22.05 72.77,-33.34 109.48,-27.83c41.76,6.26 76.43,29.1 101.31,62.89c14.87,20.2 29.8,46.08 34.41,71c-27.96,1.26 -56.46,1.83 -84.44,0.7l-88.14,-0.02c-18.33,0 -36.79,0.5 -55.09,-0.54c-27.47,-0.02 -55.19,-0.37 -82.63,0.39z" fill="rgb(241,161,91)" id="svg_26" transform="translate(0,0)"/>
	<path d="m526.75,695.21c-1.26,-18.09 -5.53,-45.16 7.07,-59.72c10.59,-12.23 26.96,-18.74 42.83,-19.69c25.29,-1.5 62.01,-3.72 81.87,14.09c9.81,8.81 13.42,20.21 14.02,33.13c0.5,10.86 -1.33,21.97 -2.56,32.75l-88.14,-0.02c-18.33,0 -36.79,0.5 -55.09,-0.54z" fill="rgb(68,68,68)" id="svg_27" transform="translate(0,0)"/>
	<path d="m349.73,255.45c3.1,-0.08 6.16,-0.02 9.25,0.32c20.08,2.2 34.91,14.86 46.96,30.02c-7.25,6.66 -15.93,11.94 -23.51,18.29c-20.97,17.55 -41.67,37.34 -59.27,58.23c-6.81,6.97 -13.67,13.59 -21.25,19.73c-9.51,-16.5 -17.65,-36.15 -18.99,-55.33c-1.27,-18.28 2.1,-31.79 14.48,-45.85c14.22,-16.16 31.11,-23.94 52.33,-25.41z" fill="rgb(185,146,124)" id="svg_28" transform="translate(0,0)"/>
	<path d="m749.99,498.02c0.22,0 0.43,-0.02 0.65,-0.01c12.05,0.28 26.4,8.12 34.51,16.55c12.23,12.72 15.07,31.52 14.76,48.55c-0.23,13.21 -4.52,25.85 -14.28,35.09c-8.82,8.35 -17.5,10.08 -29.14,9.9c-6.56,-0.7 -12.66,-1.66 -18.79,-4.23c-12.99,-5.44 -23.18,-15.95 -28.21,-29.1c-5.61,-14.41 -4.86,-32.08 1.4,-46.18c7.76,-17.45 22.25,-24.24 39.1,-30.57z" fill="rgb(2,2,1)" id="svg_29" transform="translate(0,0)"/>
	<path d="m837.57,262.35c16.55,-2.51 34.99,0.65 49.32,9.25c13.31,7.99 25.33,21.53 28.92,36.91c6.79,29.08 -2.26,54.72 -17.26,79.24c-2.92,-4.22 -6,-8.29 -9.1,-12.37c-28.62,-35.48 -59.76,-63.07 -96.4,-89.92c13.74,-14.01 24.94,-20.7 44.52,-23.11z" fill="rgb(185,146,124)" id="svg_30" transform="translate(0,0)"/>
	<path d="m439.85,503.31c7.52,-0.74 15.71,-0.85 22.88,1.71c10.9,3.87 18.36,13.1 23.17,23.3c7.07,15.01 7.12,34.63 1.32,50.15c-6.95,18.56 -20.66,25.5 -37.57,33.27c-0.84,0.27 -1.7,0.47 -2.57,0.63c-8.02,1.46 -21.96,-5.9 -28.33,-10.36c-10.44,-7.3 -16.95,-17.94 -19.15,-30.45c-2.95,-16.7 0.35,-36.95 10.38,-50.77c7.77,-10.69 17.1,-15.41 29.87,-17.48z" fill="rgb(2,2,1)" id="svg_31" transform="translate(0,0)"/>
	<path class="bord" d="M 780.78 581.85 C 833.27 584.82 886.46 582.38 939.03 582.58 C 957.5699999999999 582.6600000000001 977.9499999999999 580.21 996.26 583.49 C 1008.25 585.66 301.9 618.93 281.29999999999995 622.4499999999999 C 267.8299999999999 624.7399999999999 253.62999999999994 637.2299999999999 243.94999999999996 648.4399999999999 C 239.84999999999997 653.1999999999999 235.53999999999996 658.79 233.21999999999997 665.15 C 228.35999999999996 678.42 229.53999999999996 706.36 229.33999999999997 721.55 C 228.27999999999997 802.79 229.22999999999996 884.3 229.45 965.56 L 228.00958251953125 999.5862719726563 C 228.00958251953125 1016.6362719726562 227.2295977783203 1010.3820019531249 227.40959777832032 1027.4120019531251 L 192.47 1027.6418798828126 L 192.29 735.7500000000002 C 192.34 705.4200000000002 188.51999999999998 660.6500000000002 197.44 633.2000000000003 C 201.10999999999999 621.9100000000003 206.60999999999999 613.1700000000003 213.23 604.2500000000002 C 224.87 594.3500000000003 236.73 587.5000000000002 250.87 584.4300000000002 C 273.28000000000003 579.5400000000002 298.62 582.4800000000001 321.43 582.5000000000002 C 371.08 582.5400000000002 420.85 583.6000000000003 470.48 582.4600000000003 C 497.92 581.5500000000003 525.64 581.9700000000003 553.11 581.9900000000002 C 571.41 583.2400000000002 589.87 582.6400000000002 608.2 582.6400000000002 L 696.34 582.6600000000002 C 724.32 584.0200000000002 752.82 583.3300000000002 780.78 581.8200000000002 L 780.78 581.85 Z" fill="rgb(209,217,220)" id="svg_32" transform="matrix(-1.0445908339520469, 1.2792549122932325e-16, 1.2792549122932325e-16, 1.0445908339520469, 1258.230598300007, 87.94698919752823)"/>
</svg>